<?xml version="1.0" encoding="UTF-8"?> <svg xmlns="http://www.w3.org/2000/svg" xmlns:xlink="http://www.w3.org/1999/xlink" id="Layer_1" data-name="Layer 1" viewBox="0 0 52.3 109"><defs><style>.cls-1{fill:none;}.cls-2{clip-path:url(#clip-path);}.cls-3{fill:#fff;}.cls-4{fill:#2b2219;}</style><clipPath id="clip-path"><rect class="cls-1" width="52.3" height="109"></rect></clipPath></defs><g class="cls-2"><path class="cls-3" d="M46.5,101.9c.7,2.5-.8,6.4-3.7,6.5-3.1.1-3.6-1.8-3.7-4.5v-.1c-.2-.1-.3-.2-.3-.4v-1.7a4.87,4.87,0,0,1,.1-1.2,33,33,0,0,0-.7-12.9c-.8-3.1-1.8-7.8-.9-11.1A9.2,9.2,0,0,1,35.4,74a3.71,3.71,0,0,1-4.2,1.6,7.88,7.88,0,0,1-2.8-2.3A10.7,10.7,0,0,0,27,71.7c-.1-.1-.3-.2-.4-.4a11.6,11.6,0,0,1-4.8,1c-1.6-.7-4.2-2.5-4.8-4.1V68c-3.8.8-8.2.1-10.1-3.6C4.4,59.7,3.3,53.8,2.2,48.6c-1.1-5.4.5-11,1.6-16.3a8.4,8.4,0,0,1,.4-1.2A2.53,2.53,0,0,1,3,28.7C.7,27.3.5,23,.7,20.5a46.12,46.12,0,0,1,1.9-11C4.3,3.9,13.8,2,18.8,1.3c5.5-.8,14.9.1,19.5,3.8,5.4,4.4,5.2,15.2,3.5,21.7a5.73,5.73,0,0,1,.4,1.4c0,.1-.3,3.8-.7,3.7l.1.1c0,.1,0,.1-.1.1h-.1a62,62,0,0,1,5.5,6c1.2,1.6,4,4.1,4.4,6.1s-.2,4.4,0,6.4c.3,3.4.7,6.3,0,9.7s.2,6-2.6,8.4c-.4.3-1,.7-1.4,1,.6,4.8,0,9.4,0,14.2,0,3.3.6,6.7.3,10-.3,2.7-.9,5.3-1.1,8"></path><path class="cls-4" d="M17.9,68c-4.1,1.1-9.3.7-11.5-3.3-2.6-4.8-3.7-10.8-4.8-16-1.2-5.5.5-11.1,1.6-16.4.9-4.4,6.6-5.2,10.2-5.9.1,0,.1,0,.2.1a.14.14,0,0,1,0,.2,7.76,7.76,0,0,1-2.2,1.2c-4.1.6-5,4.3-6.4,7.2-2,3.7-2.2,8-2.3,12.1S4.1,55,5.4,58.8c1,2.8,1.6,6.7,5,7.7.7.2,6.8,1.7,6.8.8h0a.5.5,0,0,1,1,0v.1a.42.42,0,0,1-.3.6"></path><path class="cls-4" d="M18.4,47.5c.1.2-.1.6-.4.4a3.11,3.11,0,0,1-1.4-3.2c0-1.2,1.6-1.2,2.4-1.1.1,0,.2.3,0,.3a2.28,2.28,0,0,0-1.1.3c-.6.4-.3.9-.3,1.4a4.55,4.55,0,0,0,.8,1.9"></path><path class="cls-4" d="M23.4,45.5c-.6.1-1.4.3-1.8-.3-.5-.8-1.2-1.7-.9-2.8a4,4,0,0,1,1.6-2.2,3,3,0,0,1,2.6-.2c.1,0,.1.2,0,.2-.8,0-1.5-.1-2.1.6a7.1,7.1,0,0,0-1,1.4,2.68,2.68,0,0,0,.4,2.6c.3.5.8.5,1.3.6a.1.1,0,0,1,.1.1h-.2"></path><path class="cls-4" d="M31.3,48.8a2.58,2.58,0,0,1-3.1.3,5.2,5.2,0,0,1-1.8-3.2,2.43,2.43,0,0,1,1.2-2.8c1.3-.7,2.2-.3,3.6,0,.1,0,.1.1,0,.1-1.4,0-4.7.1-4,2.5.2.6.4,1.2.7,1.9.6,1.5,2,1.4,3.2.8.2-.1.4.2.2.4"></path><path class="cls-4" d="M39.2,76.1a.3.3,0,0,1,0,.4.48.48,0,0,1-.6.2c-2.1-1.4.3-4.9,1.6-5.9a2.46,2.46,0,0,1,2.6-.3c.5.3,1.3.8,1.1,1.5a.1.1,0,0,1-.1.1c-.1,0-.2,0-.2-.1-.1-.4-1.1-.8-1.4-.8A2.15,2.15,0,0,0,40,72.3c-.8,1.2-1.7,2.4-.8,3.8"></path><path class="cls-4" d="M39.2,77.5a.55.55,0,0,1-.5.3c-5.2-.8-3.2-8.4-2.1-11.4.8-2.3,6.3-8.8,9.3-6.7h0c.1,0,.1.1.1.2s-.1.1-.2.1c-3.4-.7-7,5.1-8.1,7.7l-1.2,2.4a7.76,7.76,0,0,0-.4,4c.3,2,1.2,3,2.6,2.9.2-.3.8-.1.7.3l-.2.2"></path><path class="cls-4" d="M39.5,77.6h0c-.2.1-.4.1-.5-.1a.66.66,0,0,1-.1-.6c0-.1.1-.2.2-.3s.3,0,.4.1c.4.6.8-.5,1.1-.9s.6-.9.9-1.4a15.38,15.38,0,0,1,1.2-1.3c.6-.4,1.1-.8.6-1.7-.1-.2.2-.4.3-.2a2.1,2.1,0,0,1,.5,1.5c-.2.6-.7.8-1.2,1.2a13.29,13.29,0,0,0-2.1,2.6c-.3.5-1,.6-1.3,1.1"></path><path class="cls-4" d="M34.6,55.8h0a.35.35,0,0,1-.5-.5c1.5-1.8.6-3.7.2-5.7a16.88,16.88,0,0,0-2.1-5.4c-.1-.2.1-.3.3-.2a11.89,11.89,0,0,1,3.3,6.6c.4,2.3.8,3.5-1.2,5.2"></path><path class="cls-4" d="M39.1,64c.1.8-1.3,1-1.4.2a20.47,20.47,0,0,0-1.1-4.9,22.65,22.65,0,0,1-.9-5.2c0-.1.2-.3.3-.1a51.44,51.44,0,0,1,2,5.5A13.51,13.51,0,0,1,39.1,64"></path><path class="cls-4" d="M28.1,70.6c-.6,1-5.5,2.2-6.3,1.9-1.7-.7-4.3-2.5-5-4.2a.35.35,0,0,0-.1-.2.45.45,0,1,1,.9.1c.2,2.3,5.6,3,6.5,2.6,3.6-1.5,3.7-1,3.8-4.6a53.25,53.25,0,0,0-1.6-11.9c-.6-2.5-3.5-9.8.8-10.8h0c-3.6,2.2,0,9.6.8,12.5a38.22,38.22,0,0,1,.6,6.8c.3,2.6,1.1,5.3-.4,7.8"></path><path class="cls-4" d="M19.9,68.6l.1.1a.37.37,0,0,1-.1.3c-1.8.3-2.2-2.1-1.8-3.4q0-.15.3-.3c.2-.1.4.1.5.3.1.8,0,2.4,1,3"></path><path class="cls-4" d="M18.5,66.4v.1a.45.45,0,0,1-.8-.4c3.2-6.3,0-13.2.5-19.7.2-2.9.7-6.6,4.4-5.9l.1.1c0,.1,0,.1-.1.1-5.6.9-2.2,10.9-2.2,14.4a33.52,33.52,0,0,1-1.9,11.3"></path><path class="cls-4" d="M40,55.3a.35.35,0,0,1-.6.2c-2.7-3.9,1.4-10.2,4.6-12.4.1-.1.2.1.1.2-2.7,2.9-4.2,8-4.1,12"></path><path class="cls-4" d="M40.2,60.1c0,.1-.1.1,0,0a.43.43,0,0,1-.7.1c-1.2-1-1-3.6-.5-5a12.85,12.85,0,0,1,3-4.3c.1-.1.3,0,.2.2a13.85,13.85,0,0,0-1.7,5.2c-.1,1.2.2,2.8-.3,3.8"></path><path class="cls-4" d="M13.6,55.7a.36.36,0,0,1-.7.1,12,12,0,0,1,.5-7.5c.6-1.3,1.9-3.9,3.7-3.8a.1.1,0,1,1,0,.2c-.3.1-.8,1.3-1,1.7a14,14,0,0,0-1.6,3.8,18.92,18.92,0,0,1-.5,2.3,11.24,11.24,0,0,0-.4,3.2"></path><path class="cls-4" d="M11.7,64.2v.2a.42.42,0,0,1-.6.3c-1.7-.6-1.6-3-1.2-4.4.5-2.1.9-4.2,3.1-5.2.2-.1.4.2.2.3-1.3,1.2-1.6,2.9-1.9,4.6a7.51,7.51,0,0,0,.4,4.2"></path><path class="cls-4" d="M7.8,61.5h0a.14.14,0,0,1-.2,0,2.7,2.7,0,0,1,.6-2.4c.4-.6,1.1-.5,1.6-.9s1.4,0,1.1.7a1.17,1.17,0,0,1-1.1.8,2.79,2.79,0,0,0-2,1.8"></path><path class="cls-4" d="M9.2,55a22.11,22.11,0,0,0-2.5.5.22.22,0,0,1-.2-.2,5.2,5.2,0,0,1,3.4-1.8c1.2-.1,3.1-.2,3.5,1.2,0,.2,0,.3-.2.4l-.2.1a.64.64,0,0,1-.6,0A5,5,0,0,0,9.2,55"></path><path class="cls-4" d="M26.6,43.7c-.1,0-.1.1-.2,0s-.3-.2-.3-.4a5.39,5.39,0,0,0-.3-2.5v-.1H26c.4.8,1.7,2.3.6,3"></path><path class="cls-4" d="M44.6,72.4c-.5.7-1.6-.4-.9-.9a33.2,33.2,0,0,1,3.6-2.6c3.2-2.1,4-8.1,4.2-11.7.1-3.9-1-7.9-.8-11.8.1-2-2.1-4.1-3.2-5.7-1.7-2.3-3.8-5.5-6.1-7.3-4.3-3.4-7.4-6-13-5.5-.1,0-.1,0-.2-.1s0-.2.1-.3c3.9-1.6,7.2-.4,10.3,2.5a74.83,74.83,0,0,1,8.8,9c1.2,1.6,4.1,4.2,4.5,6.1s-.2,4.5,0,6.5a28.72,28.72,0,0,1,0,9.7c-.7,3.4.2,6.1-2.7,8.5-1.6,1.2-3.2,1.9-4.6,3.6"></path><path class="cls-4" d="M39.8,62a.86.86,0,0,1-.6.3.79.79,0,0,1-.8-.8,2.77,2.77,0,0,1,.1-.9c0-.5.1-.9.1-1.4a1.43,1.43,0,0,1,.6-1.2.19.19,0,0,1,.3,0c.1.1.2.2.1.3a1.09,1.09,0,0,0,.2,1.1.68.68,0,0,1,.8.4,2,2,0,0,0,.4.8.54.54,0,0,1-.2.8c0,.1-.1.2-.1.3-.4.3-.6.4-.9.3h0"></path><path class="cls-4" d="M38.9,63.1a.37.37,0,0,1-.3-.1c-.1-.1-.1-.1-.1-.2a.1.1,0,0,1-.1-.1h0a.64.64,0,0,1,0-.6.1.1,0,0,1,.1-.1v-.4c0-.1.1-.2.2-.3h.4c.1,0,.1.1.2.1a.35.35,0,0,1,.1.2h0l.1.4.1.1a.64.64,0,0,1,0,.6v-.1a.76.76,0,0,1-.2.4l-.1.1c-.2,0-.3.1-.4,0h0"></path><path class="cls-4" d="M18.2,30.3a.76.76,0,0,1-.4.2.65.65,0,0,1-.6-.6c0-.8.4-1.7-.1-2.4-.6-.9-1.3-.8-2.2-1a.1.1,0,0,1-.1-.1c-.1-.1,0-.2.1-.3a2.61,2.61,0,0,1,3.3.6,2.86,2.86,0,0,1,0,3.6"></path><path class="cls-4" d="M36,73.9c-.7,2.1-2.6,2.7-4.6,2a10.91,10.91,0,0,1-2.9-2.3A10.7,10.7,0,0,0,27.1,72a4.35,4.35,0,0,1-.6-.7c-.4-.4.2-.9.6-.8l.4.1a.82.82,0,0,1,.5.5c.2,1.5,2.1,3,3.4,3.5a3.24,3.24,0,0,0,3.9-1,.43.43,0,0,1,.7.3"></path><path class="cls-4" d="M33.4,74.1a2.26,2.26,0,0,1-2.7-1.4,2.49,2.49,0,0,1,.2-2.5c0-.1.1-.1.2,0s.1.1.1.2c-.1.4.5,1.1.6,1.5.3,1.1.8,1.1,1.6,1.4a.32.32,0,0,1,.3.3c.1.2,0,.4-.3.5"></path><path class="cls-4" d="M24.9,69.8a4.13,4.13,0,0,1-2.9-.2c-.8-.4-.7-1.8-1-2.5,0-.1.1-.2.2-.1.5.5.9,1.4,1.6,1.6s1.4,0,2.1.2a.78.78,0,0,1,.4.4c.2.2,0,.5-.4.6"></path><path class="cls-4" d="M16,66.5c-.8.9-1.8.5-2.4-.3a3.51,3.51,0,0,1-.6-1.4c0-.3.3-.5.2-.8,0-.1.1-.2.2-.1.3.4.7.6,1,1,.5.6.7.5,1.3.7.1,0,.1.1.2.1.3.3.3.6.1.8"></path><path class="cls-4" d="M48.8,65.1a.6.6,0,0,1-.4.1c-.3-.2-.4-.5-.8-.4a2.92,2.92,0,0,0-.9.2h-.2l-.1-.1a.14.14,0,0,1,0-.2c0-.1.1-.1.2-.1-.3-.1,1.2-.9,1.3-.9a1.09,1.09,0,0,1,1.2.7.62.62,0,0,1-.1.7h-.2"></path><path class="cls-4" d="M47,103.7q0,.15-.3.3c-.2,0-.4-.1-.4-.3.1-6.6.7-13,.4-19.6a86.86,86.86,0,0,1,.7-14.4c0-.1.3-.2.3,0,.6,4.9,0,9.6,0,14.5,0,3.3.6,6.9.3,10.1s-1.1,6.2-1,9.4"></path><path class="cls-4" d="M39.5,104.2c.2.7-.7,1.2-1,.6a7.69,7.69,0,0,1-.3-3.7A32.16,32.16,0,0,0,37.5,88c-.9-3.4-2-8.4-.8-11.8,0-.1.3-.2.3,0,.6,4.4,1.5,9,2.1,13.4a47.06,47.06,0,0,1,.3,7.5c.1,2.1-.8,5,.1,7.1"></path><path class="cls-4" d="M47,102.2c.8,2.5-.7,6.6-3.7,6.7-3.6.2-5.2-2.4-4.8-5.8,0-.2.4-.3.4,0,.4,2.4,1.5,4.9,4.3,4.7s2.6-3.6,3-5.6q0-.15.3-.3a.55.55,0,0,1,.5.3"></path><path class="cls-4" d="M42,84.3a5.53,5.53,0,0,1-3.1.8c-.9-.1-2.1-.4-1.9-1.5a.42.42,0,0,1,.6-.3c.4.1.6.4,1,.5a5,5,0,0,0,1.2.2,8.13,8.13,0,0,0,2.2.1h0c.1,0,.1,0,.2.1s-.1.1-.2.1"></path><path class="cls-4" d="M42.9,94.2c-.9.9-3.2,1.9-3.8.2h0c-.1-.3.1-.5.4-.6a1,1,0,0,1,.9.2,3.32,3.32,0,0,0,2.4.1c0-.1.1,0,.1.1"></path><path class="cls-4" d="M39,104.1a.45.45,0,1,1-.9-.1,9.68,9.68,0,0,1,.4-3.8,8.86,8.86,0,0,1,.8-1.7,6.71,6.71,0,0,0,.9-1.4.1.1,0,0,1,.1-.1c.1,0,.2,0,.2.1a5.19,5.19,0,0,1-.7,2.7c-.5,1.3-.4,2.9-.8,4.3"></path><path class="cls-4" d="M43.6,77.1c0,.1-.2.2-.2.1-.1-.5-.2-1.1-.3-1.6s-.2-.7-.3-1.1a.55.55,0,0,1-.3-.5v-.1a.37.37,0,0,1,.1-.3.55.55,0,0,1,.8-.2l.1.1a.55.55,0,0,1,.3.5,10.8,10.8,0,0,0-.2,3.1"></path><path class="cls-4" d="M41.8,32h-.1a.1.1,0,0,1-.1-.1c-.2-4.8-2.3-7.8-7.1-9.2a41.83,41.83,0,0,0-9.3-1.4c-3.5-.1-7.3-.3-10.7.5-.8.2-14.8,4.4-9.6,7.9a.91.91,0,0,1,.3,1,.76.76,0,0,1-1,.4c-3.1-1.4-.9-5.8,1.3-7.2,5-3.1,10.9-3.9,16.6-3.9s12.7.3,17.7,3.4a7.14,7.14,0,0,1,2.9,4.5c0,.1-.3,3.8-.7,3.7l.1.1c-.2.1-.2.2-.3.3"></path><path class="cls-4" d="M3.1,28a.75.75,0,0,1,.1.5.48.48,0,0,1-.6.2C0,27.4-.1,22.8,0,20.2A42.51,42.51,0,0,1,2,9.1C3.9,3.4,13.6,1.5,18.7.8c5.7-.8,15.3.1,20,3.9,5.8,4.7,5.2,16.7,3.1,23.1,0,.1-.2.1-.2,0-1-6.2.8-12.4-1.3-18.6C38,2.7,26,1.7,20.5,2A29.12,29.12,0,0,0,10,4.3c-1.8.8-6.2,3-6.6,5.2a82,82,0,0,0-1.8,8.6c-.2,2.3-.1,8.1,1.5,9.9"></path><path class="cls-4" d="M10.7,19.2a4.86,4.86,0,0,1-5.3,1.6c-2.1-.6-2.5-2.3-2.1-4.3.2-1,.4-2.1,1.4-2.5a2,2,0,0,1,2.2.2.35.35,0,0,1,.1.2.22.22,0,0,1-.2.2c-2.1-.5-2.1,2.2-2,3.5.1,1.1,1.3,1.3,2.3,1.3a2.89,2.89,0,0,0,2.7-1.3c.5-1.1-.2-2.4-.6-3.4a.63.63,0,0,1-.1-.7.38.38,0,0,1,.6,0c1.5,1.3,2.2,3.6,1,5.2"></path><path class="cls-4" d="M39,18.6c0,.1-.2.1-.2,0a50.5,50.5,0,0,1-.6-5.6c-.1-1.6-.7-3.1-.8-4.6V8.3a.44.44,0,0,1,.6-.4c1.5.3,1.4,2.7,1.4,3.9,0,2.3-.2,4.5-.4,6.8"></path><path class="cls-4" d="M35.7,14.3h0c-.1.1-.1.1-.2.1-.5-.9-.3-2.4-.3-3.4,0-1.6-.5-3-.3-4.7A.37.37,0,0,1,35,6a.48.48,0,0,1,.7,0c1,.9.8,2.7.7,3.9-.1,1-.3,1.9-.4,2.9a4,4,0,0,0-.3,1.5"></path><path class="cls-4" d="M33.3,11.3a.22.22,0,0,1-.2.2c-.6-.5-.5-1.8-.6-2.5a17.85,17.85,0,0,0-.2-2.3A3.33,3.33,0,0,1,32.1,5c0-.1,0-.1.1-.2a.48.48,0,0,1,.6-.2c1,.7,1,1.9,1,3.1a14.92,14.92,0,0,1-.2,2.1,4,4,0,0,0-.3,1.5"></path><path class="cls-4" d="M30.5,9.3c0,.1-.2.1-.2,0A5.93,5.93,0,0,1,29.8,7a5.3,5.3,0,0,1,.1-2.5.1.1,0,0,1,.1-.1.44.44,0,0,1,.5.1c.8,1.3.5,3.4,0,4.8"></path><path class="cls-4" d="M28.1,6.7h0c-.1.1-.2.1-.2,0a11.69,11.69,0,0,0-.6-2c-.1-.1-.1-.2,0-.4a.55.55,0,0,1,.6-.4c1.1.2.4,2.2.2,2.8"></path><path class="cls-4" d="M25.1,5.1h-.2V5h0V4.9c0-.2-.1-.6-.3-.7-.9-.6.5-1.6.9-.6A1.69,1.69,0,0,1,25.4,5c-.1.1-.2.2-.3.1"></path><path class="cls-4" d="M22.4,4.3v.2a.19.19,0,0,1-.3,0c-.1-.1-.2-.5-.4-.6h0a.48.48,0,0,1-.2-.6h0c.1-.4.8-.6,1-.1v.1h0v.1c-.1.4-.2.6-.1.9"></path><path class="cls-4" d="M19.7,4.2a.2.2,0,1,1-.2-.2c.1-.1.2,0,.2.2"></path><path class="cls-4" d="M4.2,16.1c-.1.1-.2.2-.3.2a.43.43,0,0,1-.4-.4,14.92,14.92,0,0,0,.2-2.1A3.19,3.19,0,0,1,4,12.4c.5-.8.6-1.8,1.2-2.4h.1s.1.1,0,.1c-.4,1-.1,2.1-.3,3.1a11.51,11.51,0,0,1-.8,2.9"></path><path class="cls-4" d="M5.8,13.5a.55.55,0,0,1-.5.3H5.2c-.1,0-.2-.2-.2-.3A9.38,9.38,0,0,0,5.6,12l.1-.1c.1,0,.1,0,.2.1a2.62,2.62,0,0,1-.1,1.5"></path><path class="cls-4" d="M40.6,30.4v.2c-.1.1-.3.2-.4.1-.5-.3-.9-.4-1.2-.9a4.78,4.78,0,0,1-.6-1.8,12.22,12.22,0,0,1,.3-3.8c0-.2.3-.1.3,0,.3,1.1.6,2.3.9,3.4s.5,1.9.7,2.8"></path><path class="cls-4" d="M41.1,30.6h0a.68.68,0,0,1-1,.1c-1.1-1-1.7-4-.6-5.2a.37.37,0,0,1,.3-.1c.2,0,.3.2.2.4-.4,1.7,2.2,3.2,1.1,4.8"></path><path class="cls-4" d="M41.1,31.5a.54.54,0,0,1-.3.4.52.52,0,0,1-.8-.2,6.55,6.55,0,0,1-.3-2.8c0-.7.3-1.8-.3-2.4v-.2a.77.77,0,0,1,.2-.3c.1-.1.2-.1.1.1s.5.6.6.8a3,3,0,0,1,.4,1,8.52,8.52,0,0,1,.4,3.6"></path><path class="cls-4" d="M42,31.4c-.1.4-.8.6-.8.1a4.85,4.85,0,0,1,0-1.7.4.4,0,0,1,.8,0v1.6"></path><path class="cls-4" d="M20.9,22.9a36.83,36.83,0,0,0-15,2.6c-.3.1-.6-.4-.3-.6,3-3.3,9.9-3.7,14.1-3.4,3,.2,6,.4,9,.8,2.3.3,4.4,1.5,6.8,1.9h0c-4.7.6-9.8-1.1-14.6-1.3"></path><path class="cls-4" d="M12.7,19.5a.19.19,0,0,1-.3,0,.49.49,0,0,1-.3-.6c.1-.5.6-.9.5-1.5a1.85,1.85,0,0,1,.2-.7c.1.3.4.2.6.4a1.08,1.08,0,0,1,.3.7,2.26,2.26,0,0,1-1,1.7"></path><path class="cls-4" d="M14.8,18.6h0c-.7.1-.7-1.2,0-1.1-.4,0,.2-.3.3-.6h0c-.1.2.2.8.2,1.1a.63.63,0,0,1-.5.6"></path><path class="cls-4" d="M17.2,17.8c.3.9-1.1.7-.8.1l.3-.6h.2a2.19,2.19,0,0,1,.3.5"></path><path class="cls-4" d="M19,18.2c-.7.5-1.1-.6-.3-1,.5-.3.9.7.3,1"></path><path class="cls-4" d="M21.6,17.9h0a.47.47,0,0,1-.7-.1.48.48,0,0,1,.2-.6l.2-.1c.3-.2.8.2.6.6l-.1.1c-.1,0-.1,0-.2.1h0"></path><path class="cls-4" d="M24.1,17.4c.1.2.4.7-.2.7s-.3-.5-.2-.7a.22.22,0,0,1,.2-.2s.2.1.2.2"></path><path class="cls-4" d="M26.2,18a.25.25,0,0,1-.5,0v-.2a.35.35,0,0,1,.1-.2l.1-.1h.3a.19.19,0,0,1,0,.3V18"></path><path class="cls-4" d="M30,18.1a.2.2,0,1,1-.2-.2c.1.1.2.1.2.2"></path></g></svg> 