<svg id="Layer_2" data-name="Layer 2" xmlns="http://www.w3.org/2000/svg" viewBox="0 0 108.69 18.35"><defs><style>.cls-1{fill:#231f20;}</style></defs><title>Artboard 1</title><path class="cls-1" d="M108.65,7.88v.23c.08.47-.16.94,0,1.4.23,1-.55,2-.78,3a7.7,7.7,0,0,1-1.72,2.73,8.14,8.14,0,0,1-2.73,1.87,8.23,8.23,0,0,1-3,.94,9,9,0,0,1-6.08-1.87c-1.4-1.25-2.57-3.35-2-5.38a6.4,6.4,0,0,1,1.4-2.57c.55-.62.78-1.17,1.64-1.4,1.4-.39,3.2-.47,4.21.7s2.18,3.59.08,4.37c-1.4.55-3.28-1.09-2.18-2.5.55-.7,2-.23,1.64.7-.16.31-.47.7-.31,1a.6.6,0,0,0,.7.16c.78-.31.86-1.87.55-2.5A3,3,0,0,0,98,7.26,5.06,5.06,0,0,0,96.4,7.1a6,6,0,0,0-1.25.55,4,4,0,0,0-1.79,2,7.08,7.08,0,0,0-.47,3.12,4.39,4.39,0,0,0,1.33,2.42,6.25,6.25,0,0,0,5.15,2.26,12.65,12.65,0,0,0,1.72,0l1.25-.47a7.16,7.16,0,0,0,2.73-1.48,8.88,8.88,0,0,0,3-5.38,8.79,8.79,0,0,0-.16-2.5l-.08-.62a7,7,0,0,0-1.17-2.26,9.15,9.15,0,0,0-5.07-3.43,15.81,15.81,0,0,0-6.63-.16,21.33,21.33,0,0,0-3.2.78A30.2,30.2,0,0,1,88.91,3a10.84,10.84,0,0,0-1.33.7c-.47.16-.78.39-1.25.55-.86.39-1.56,1-2.42,1.4A59.57,59.57,0,0,0,78.23,9a46.5,46.5,0,0,1-5.46,3,22.85,22.85,0,0,1-6.4,1.72A23.77,23.77,0,0,1,63,13.66a7.69,7.69,0,0,1-3-.55c-1.72-.62-3.51-1.95-3.82-3.82a3.79,3.79,0,0,1,.39-3.2,3.38,3.38,0,0,1,2-1.56c1.48-.47,3.59-.16,4.29,1.4.55,1.33-.31,3.82-2.11,3C60.28,8.66,59,8,59.66,7.26s1.64-1,2,.08c0,.23.23,1,.55.62a.93.93,0,0,0,.39-.7,2,2,0,0,0-1-2A3.68,3.68,0,0,0,57.32,6c-1.09,1.4-.7,3.51.23,4.84a6.34,6.34,0,0,0,2.57,1.64c.39.16.86.16,1.25.31s.78.08,1.17.23a6.82,6.82,0,0,0,2.81,0,9.44,9.44,0,0,0,1.48,0,7.28,7.28,0,0,0,1.25-.31,9.74,9.74,0,0,0,1.48-.23c.39-.08.78-.39,1.25-.47a18.36,18.36,0,0,0,2.89-1.09c4.29-2,8-4.84,12.17-7a50.36,50.36,0,0,1,6.47-2.5A15.24,15.24,0,0,1,95.46.63c1,0,2.11-.23,3.2-.31a10.19,10.19,0,0,1,3,.39A6.68,6.68,0,0,1,103,.94a5.82,5.82,0,0,0,1.17.7c1.72.62,2.73,2.26,3.51,3.82L108,6a7.19,7.19,0,0,1,.23.7l.23.62Zm-47.58.47c-.16-.39.08-1-.31-1.17-.55-.23-.78.47-.47.86l.08.08C60.6,8.27,60.91,8.2,61.07,8.35ZM98.58,9.83a.45.45,0,0,0-.78-.16.47.47,0,0,0-.08.62,1.78,1.78,0,0,0,.55.78C98.12,10.61,98.74,10.3,98.58,9.83Z"/><path class="cls-1" d="M.2,7.34l.23-.62A7.19,7.19,0,0,1,.67,6L1,5.47c.78-1.56,1.79-3.2,3.51-3.82A5.82,5.82,0,0,0,5.66.94,6.68,6.68,0,0,1,7,.71a10.19,10.19,0,0,1,3-.39c1.09.08,2.18.31,3.2.31a15.24,15.24,0,0,1,3.12.78,50.36,50.36,0,0,1,6.47,2.5C27,6.09,30.7,9,35,10.93A18.36,18.36,0,0,0,37.87,12c.47.08.86.39,1.25.47a9.74,9.74,0,0,0,1.48.23,7.28,7.28,0,0,0,1.25.31,9.44,9.44,0,0,0,1.48,0,6.82,6.82,0,0,0,2.81,0c.39-.16.78-.08,1.17-.23s.86-.16,1.25-.31a6.34,6.34,0,0,0,2.57-1.64c.94-1.33,1.33-3.43.23-4.84a3.68,3.68,0,0,0-4.21-.78,2,2,0,0,0-1,2,.93.93,0,0,0,.39.7c.31.39.55-.39.55-.62.31-1.09,1.4-.78,2-.08s-.62,1.4-1.17,1.64c-1.79.86-2.65-1.64-2.11-3,.7-1.56,2.81-1.87,4.29-1.4a3.38,3.38,0,0,1,2,1.56,3.79,3.79,0,0,1,.39,3.2c-.31,1.87-2.11,3.2-3.82,3.82a7.69,7.69,0,0,1-3,.55,23.77,23.77,0,0,1-3.35.08A22.85,22.85,0,0,1,35.92,12a46.5,46.5,0,0,1-5.46-3A59.57,59.57,0,0,0,24.77,5.7c-.86-.39-1.56-1-2.42-1.4-.47-.16-.78-.39-1.25-.55A10.84,10.84,0,0,0,19.78,3,30.2,30.2,0,0,1,17,1.88a21.33,21.33,0,0,0-3.2-.78,15.81,15.81,0,0,0-6.63.16A9.15,9.15,0,0,0,2.07,4.69,7,7,0,0,0,.9,6.95l-.08.62a8.79,8.79,0,0,0-.16,2.5,8.88,8.88,0,0,0,3,5.38,7.16,7.16,0,0,0,2.73,1.48l1.25.47a12.65,12.65,0,0,0,1.72,0,6.25,6.25,0,0,0,5.15-2.26,4.39,4.39,0,0,0,1.33-2.42,7.08,7.08,0,0,0-.47-3.12,4,4,0,0,0-1.79-2,6,6,0,0,0-1.25-.55,5.06,5.06,0,0,0-1.56.16A3,3,0,0,0,8.62,8.74c-.31.62-.23,2.18.55,2.5a.6.6,0,0,0,.7-.16c.16-.31-.16-.7-.31-1-.31-.94,1.09-1.4,1.64-.7,1.09,1.4-.78,3-2.18,2.5-2.11-.78-.94-3.28.08-4.37s2.81-1.09,4.21-.7c.86.23,1.09.78,1.64,1.4a6.4,6.4,0,0,1,1.4,2.57c.55,2-.62,4.13-2,5.38A9,9,0,0,1,8.23,18a8.23,8.23,0,0,1-3-.94,8.14,8.14,0,0,1-2.73-1.87A7.7,7.7,0,0,1,.82,12.49c-.23-.94-1-1.95-.78-3C.2,9.06,0,8.59,0,8.12V7.88Zm48.13.78L48.41,8c.31-.39.08-1.09-.47-.86-.39.16-.16.78-.31,1.17C47.78,8.2,48.09,8.27,48.33,8.12Zm-37.91,3A1.78,1.78,0,0,0,11,10.3a.47.47,0,0,0-.08-.62.45.45,0,0,0-.78.16C9.95,10.3,10.57,10.61,10.42,11.08Z"/></svg>